<?xml version="1.0" encoding="UTF-8" standalone="no"?>
<!-- Generator: IcoMoon.io -->
<svg id="svg2" xmlns:rdf="http://www.w3.org/1999/02/22-rdf-syntax-ns#" xmlns="http://www.w3.org/2000/svg" fill="#4a4a4a" height="512" viewBox="0 0 512 512" width="512" version="1.1" xmlns:cc="http://creativecommons.org/ns#" xmlns:dc="http://purl.org/dc/elements/1.1/">
 <metadata id="metadata10">
  <rdf:RDF>
   <cc:Work rdf:about="">
    <dc:format>image/svg+xml</dc:format>
    <dc:type rdf:resource="http://purl.org/dc/dcmitype/StillImage"/>
    <dc:title/>
   </cc:Work>
  </rdf:RDF>
 </metadata>
 <path id="path4" d="m447.66 224h-37.241v-96c-0.01-70.692-66.7-128-148.97-128s-148.97 57.308-148.97 128v96h-37.241c-20.48 0-37.239 14.4-37.239 32v224c0 17.6 16.759 32 37.241 32h372.41c20.483 0 37.241-14.4 37.241-32v-224c0-17.6-16.759-32-37.241-32zm-111.72 0h-148.97v-96c0-35.29 33.412-64 74.483-64 41.07 0 74.483 28.71 74.483 64v96z"/>
 <g id="text4140" fill="#fff" transform="matrix(.85919 0 0 .85919 38.252 50.397)">
  <path id="path4155" d="m66.786 417.13v-106.97h21.776v88.795h54.145v18.171h-75.921z"/>
  <path id="path4157" d="m158.23 309.28h39.8q13.463 0 20.525 2.0599 9.4901 2.7955 16.258 9.9315 6.7682 7.136 10.299 17.509 3.5312 10.299 3.5312 25.454 0 13.316-3.3105 22.953-4.0462 11.771-11.55 19.054-5.6646 5.5175-15.302 8.6073-7.2096 2.2806-19.275 2.2806h-40.977v-107.85zm21.776 18.245v71.433h16.258q9.1223 0 13.168-1.0299 5.2968-1.3242 8.7545-4.4876 3.5312-3.1634 5.7382-10.373 2.207-7.2831 2.207-19.79 0-12.506-2.207-19.201-2.207-6.6946-6.1796-10.446-3.9726-3.7519-10.079-5.0761-4.5612-1.0299-17.877-1.0299h-9.7844z"/>
  <path id="path4159" d="m364.44 417.13h-23.689l-9.4166-24.498h-43.11l-8.9016 24.498h-23.1l42.007-107.85h23.026l43.184 107.85zm-40.094-42.669-14.861-40.02-14.566 40.02h29.427z"/>
  <path id="path4161" d="m376.06 417.13v-107.85h34.944q19.863 0 25.896 1.6185 9.2694 2.4277 15.523 10.594 6.2532 8.0924 6.2532 20.967 0 9.9315-3.6048 16.7-3.6048 6.7682-9.1959 10.667-5.5175 3.8255-11.256 5.0761-7.7981 1.5449-22.585 1.5449h-14.198v40.682h-21.776zm21.776-89.604v30.604h11.918q12.874 0 17.215-1.692 4.3404-1.692 6.7682-5.2968 2.5013-3.6048 2.5013-8.3866 0-5.8854-3.4576-9.7108-3.4576-3.8255-8.7545-4.7818-3.899-0.73566-15.67-0.73566h-10.52z"/>
 </g>
</svg>
