<?xml version="1.0" encoding="utf-8"?> <!-- Generator: IcoMoon.io --> <!DOCTYPE svg PUBLIC "-//W3C//DTD SVG 1.1//EN" "http://www.w3.org/Graphics/SVG/1.1/DTD/svg11.dtd"> <svg width="512" height="512" viewBox="0 0 512 512" xmlns="http://www.w3.org/2000/svg" xmlns:xlink="http://www.w3.org/1999/xlink" fill="#a0a0a0"><path d="M 448.00,192.00l-32.00,0.00 L 416.00,32.00 c0.00-17.60-14.40-32.00-32.00-32.00L 128.00,0.00 c-17.60,0.00-32.00,14.40-32.00,32.00l0.00,160.00 L 64.00,192.00 c-17.602,0.00-32.00,14.40-32.00,32.00l0.00,256.00 c0.00,17.60, 14.398,32.00, 32.00,32.00l 384.00,0.00 c 17.60,0.00, 32.00-14.40, 32.00-32.00L 480.00,224.00 C 480.00,206.40, 465.60,192.00, 448.00,192.00z M 288.00,416.00l-64.00,0.00 l 13.92-69.60 C 229.516,340.634, 224.00,330.963, 224.00,320.00c0.00-17.673, 14.327-32.00, 32.00-32.00c 17.673,0.00, 32.00,14.327, 32.00,32.00c0.00,10.963-5.516,20.634-13.92,26.40L 288.00,416.00 z M 352.00,192.00L 160.00,192.00 L 160.00,64.00 l 192.00,0.00 L 352.00,192.00 z" ></path></svg>